<svg width="278" height="8" viewBox="0 0 278 8" fill="none" xmlns="http://www.w3.org/2000/svg">
<path d="M3.9375 7.08203C3.46094 7.08203 3.01172 6.99609 2.58984 6.82422C2.17578 6.64453 1.8125 6.39844 1.5 6.08594C1.1875 5.77344 0.941406 5.40625 0.761719 4.98438C0.582031 4.5625 0.492188 4.11719 0.492188 3.64844C0.492188 3.17188 0.582031 2.72656 0.761719 2.3125C0.941406 1.89844 1.1875 1.53516 1.5 1.22266C1.8125 0.902344 2.17578 0.65625 2.58984 0.484375C3.01172 0.304688 3.46094 0.214844 3.9375 0.214844C4.41406 0.214844 4.85938 0.304688 5.27344 0.484375C5.69531 0.65625 6.05859 0.902344 6.36328 1.22266C6.67578 1.53516 6.92188 1.90234 7.10156 2.32422C7.28906 2.73828 7.38281 3.17969 7.38281 3.64844C7.38281 4.125 7.28906 4.57422 7.10156 4.99609C6.92188 5.41016 6.67578 5.77344 6.36328 6.08594C6.05859 6.39844 5.69531 6.64453 5.27344 6.82422C4.85938 6.99609 4.41406 7.08203 3.9375 7.08203ZM3.9375 0.707031C3.52344 0.707031 3.14062 0.785156 2.78906 0.941406C2.4375 1.08984 2.125 1.30078 1.85156 1.57422C1.27344 2.15234 0.984375 2.84375 0.984375 3.64844C0.984375 4.45312 1.27344 5.14453 1.85156 5.72266C2.42969 6.30078 3.12109 6.58984 3.92578 6.58984C4.74609 6.58984 5.44141 6.30469 6.01172 5.73438C6.58984 5.15625 6.87891 4.46094 6.87891 3.64844C6.87891 2.84375 6.58984 2.15234 6.01172 1.57422C5.44141 0.996094 4.75 0.707031 3.9375 0.707031ZM5.61328 4.58594C5.45703 4.89844 5.24219 5.14453 4.96875 5.32422C4.70312 5.50391 4.40625 5.59375 4.07812 5.59375C3.75 5.59375 3.46875 5.55078 3.23438 5.46484C3.00781 5.37109 2.8125 5.23438 2.64844 5.05469C2.3125 4.70312 2.14062 4.23438 2.13281 3.64844C2.13281 3.0625 2.30469 2.59375 2.64844 2.24219C2.99219 1.88281 3.44141 1.70312 3.99609 1.70312C4.37891 1.70312 4.70312 1.79297 4.96875 1.97266C5.24219 2.15234 5.45703 2.39844 5.61328 2.71094C5.62891 2.75 5.63672 2.80469 5.63672 2.875C5.64453 2.9375 5.61719 2.99609 5.55469 3.05078C5.5 3.10547 5.4375 3.13281 5.36719 3.13281C5.29688 3.13281 5.23828 3.12109 5.19141 3.09766C5.14453 3.07422 5.07812 2.99609 4.99219 2.86328C4.91406 2.72266 4.79297 2.59375 4.62891 2.47656C4.46484 2.35156 4.26562 2.28906 4.03125 2.28906C3.79688 2.28906 3.60547 2.32812 3.45703 2.40625C3.30859 2.47656 3.1875 2.57422 3.09375 2.69922C2.89062 2.94922 2.78906 3.26562 2.78906 3.64844C2.78906 4.03125 2.89062 4.34766 3.09375 4.59766C3.30469 4.87109 3.60547 5.00781 3.99609 5.00781C4.44922 5.00781 4.79688 4.79297 5.03906 4.36328C5.11719 4.22266 5.20703 4.15625 5.30859 4.16406C5.41797 4.16406 5.5 4.19141 5.55469 4.24609C5.61719 4.30078 5.64453 4.36328 5.63672 4.43359C5.63672 4.49609 5.62891 4.54688 5.61328 4.58594ZM27.3984 6.17969C27.5156 6.17969 27.6133 6.22266 27.6914 6.30859C27.7695 6.38672 27.8086 6.48438 27.8086 6.60156C27.8086 6.71094 27.7695 6.80469 27.6914 6.88281C27.6133 6.96094 27.5156 7 27.3984 7H23.6953C23.5469 7 23.4258 6.95312 23.332 6.85938C23.2383 6.76562 23.1914 6.64844 23.1914 6.50781C23.1914 6.17188 23.2852 5.86719 23.4727 5.59375C23.6602 5.32031 23.8945 5.07031 24.1758 4.84375C24.457 4.60938 24.7656 4.39062 25.1016 4.1875C25.4375 3.98438 25.7461 3.78125 26.0273 3.57812C26.3164 3.375 26.5547 3.16406 26.7422 2.94531C26.9297 2.72656 27.0234 2.50781 27.0234 2.28906C27.0234 2.07031 26.9961 1.89062 26.9414 1.75C26.8867 1.60156 26.8008 1.47656 26.6836 1.375C26.4258 1.14062 26.0312 1.02344 25.5 1.02344C24.9297 1.02344 24.3828 1.14062 23.8594 1.375C23.7969 1.40625 23.7227 1.42188 23.6367 1.42188C23.5586 1.42188 23.4844 1.38672 23.4141 1.31641C23.3516 1.24609 23.3203 1.14453 23.3203 1.01172C23.3203 0.878906 23.3867 0.773438 23.5195 0.695312C24.168 0.367188 24.8828 0.203125 25.6641 0.203125C26.2891 0.203125 26.8086 0.382812 27.2227 0.742188C27.6523 1.10156 27.8672 1.57031 27.8672 2.14844C27.8672 2.72656 27.5742 3.28906 26.9883 3.83594C26.7305 4.07031 26.4492 4.28906 26.1445 4.49219C25.8477 4.6875 25.5586 4.88281 25.2773 5.07812C24.9961 5.26562 24.7422 5.44922 24.5156 5.62891C24.2891 5.80859 24.1367 5.99219 24.0586 6.17969H27.3984ZM37.6055 0.203125C38.0352 0.203125 38.4102 0.285156 38.7305 0.449219C39.0586 0.613281 39.3281 0.851562 39.5391 1.16406C39.9766 1.76562 40.1953 2.59375 40.1953 3.64844C40.1953 4.71094 39.9766 5.54297 39.5391 6.14453C39.0781 6.77734 38.4297 7.09375 37.5938 7.09375C36.7578 7.09375 36.1094 6.77734 35.6484 6.14453C35.2109 5.54297 34.9922 4.71094 34.9922 3.64844C34.9922 2.59375 35.2109 1.76562 35.6484 1.16406C36.1094 0.523438 36.7617 0.203125 37.6055 0.203125ZM37.6055 6.28516C38.168 6.28516 38.5938 6.04688 38.8828 5.57031C39.1797 5.10156 39.3281 4.46094 39.3281 3.64844C39.3281 2.83594 39.1797 2.19531 38.8828 1.72656C38.5859 1.25 38.1523 1.01562 37.582 1.02344C37.0195 1.02344 36.5938 1.26172 36.3047 1.73828C36.0156 2.20703 35.8711 2.84375 35.8711 3.64844C35.8711 4.46875 36.0156 5.10938 36.3047 5.57031C36.6094 6.04688 37.043 6.28516 37.6055 6.28516ZM51.4453 6.17969C51.5625 6.17969 51.6602 6.22266 51.7383 6.30859C51.8164 6.38672 51.8555 6.48438 51.8555 6.60156C51.8555 6.71094 51.8164 6.80469 51.7383 6.88281C51.6602 6.96094 51.5625 7 51.4453 7H47.7422C47.5938 7 47.4727 6.95312 47.3789 6.85938C47.2852 6.76562 47.2383 6.64844 47.2383 6.50781C47.2383 6.17188 47.332 5.86719 47.5195 5.59375C47.707 5.32031 47.9414 5.07031 48.2227 4.84375C48.5039 4.60938 48.8125 4.39062 49.1484 4.1875C49.4844 3.98438 49.793 3.78125 50.0742 3.57812C50.3633 3.375 50.6016 3.16406 50.7891 2.94531C50.9766 2.72656 51.0703 2.50781 51.0703 2.28906C51.0703 2.07031 51.043 1.89062 50.9883 1.75C50.9336 1.60156 50.8477 1.47656 50.7305 1.375C50.4727 1.14062 50.0781 1.02344 49.5469 1.02344C48.9766 1.02344 48.4297 1.14062 47.9062 1.375C47.8438 1.40625 47.7695 1.42188 47.6836 1.42188C47.6055 1.42188 47.5312 1.38672 47.4609 1.31641C47.3984 1.24609 47.3672 1.14453 47.3672 1.01172C47.3672 0.878906 47.4336 0.773438 47.5664 0.695312C48.2148 0.367188 48.9297 0.203125 49.7109 0.203125C50.3359 0.203125 50.8555 0.382812 51.2695 0.742188C51.6992 1.10156 51.9141 1.57031 51.9141 2.14844C51.9141 2.72656 51.6211 3.28906 51.0352 3.83594C50.7773 4.07031 50.4961 4.28906 50.1914 4.49219C49.8945 4.6875 49.6055 4.88281 49.3242 5.07812C49.043 5.26562 48.7891 5.44922 48.5625 5.62891C48.3359 5.80859 48.1836 5.99219 48.1055 6.17969H51.4453ZM63.293 6.17969C63.4102 6.17969 63.5078 6.22266 63.5859 6.30859C63.6719 6.38672 63.7148 6.48438 63.7148 6.60156C63.7148 6.71094 63.6719 6.80469 63.5859 6.88281C63.5078 6.96094 63.4102 7 63.293 7H60.3281C60.2188 7 60.1211 6.96094 60.0352 6.88281C59.957 6.80469 59.918 6.71094 59.918 6.60156C59.918 6.49219 59.957 6.39453 60.0352 6.30859C60.1133 6.22266 60.2109 6.17969 60.3281 6.17969H61.4648V1.31641L60.4922 1.79688C60.4609 1.8125 60.4258 1.82812 60.3867 1.84375C60.3555 1.85156 60.2969 1.85547 60.2109 1.85547C60.1328 1.85547 60.0547 1.82031 59.9766 1.75C59.8984 1.67188 59.8594 1.55469 59.8594 1.39844C59.8594 1.24219 59.9414 1.125 60.1055 1.04688L61.418 0.367188C61.5039 0.320312 61.5938 0.296875 61.6875 0.296875H61.8867C62.0117 0.296875 62.1172 0.34375 62.2031 0.4375C62.2969 0.523438 62.3438 0.628906 62.3438 0.753906V6.17969H63.293ZM82.6523 0.296875C83.7227 0.296875 84.5742 0.65625 85.207 1.375C85.4883 1.6875 85.6953 2.04297 85.8281 2.44141C85.9688 2.83984 86.0391 3.24219 86.0391 3.64844C86.0391 4.05469 85.9688 4.45703 85.8281 4.85547C85.6953 5.25391 85.4883 5.60938 85.207 5.92188C84.5742 6.64062 83.7227 7 82.6523 7H80.7188C80.6016 7 80.5 6.95703 80.4141 6.87109C80.3281 6.78516 80.2852 6.68359 80.2852 6.56641V0.742188C80.2852 0.625 80.3281 0.523438 80.4141 0.4375C80.5 0.34375 80.6016 0.296875 80.7188 0.296875H82.6523ZM82.5469 6.17969C83.3438 6.17969 83.9844 5.94531 84.4688 5.47656C84.9453 5.00781 85.1836 4.39844 85.1836 3.64844C85.1836 2.89844 84.9453 2.28906 84.4688 1.82031C83.9844 1.35156 83.3438 1.11719 82.5469 1.11719H81.1641V6.17969H82.5469ZM93.9141 0.25C94.0312 0.25 94.1328 0.292969 94.2188 0.378906C94.3125 0.464844 94.3594 0.570312 94.3594 0.695312V6.61328C94.3594 6.73047 94.3164 6.83203 94.2305 6.91797C94.1445 7.00391 94.0391 7.04688 93.9141 7.04688C93.7969 7.04688 93.6953 7.00391 93.6094 6.91797C93.5234 6.83203 93.4805 6.73047 93.4805 6.61328V0.695312C93.4805 0.578125 93.5234 0.476562 93.6094 0.390625C93.6953 0.296875 93.7969 0.25 93.9141 0.25ZM105.281 6.27344C105.883 6.27344 106.445 6.13281 106.969 5.85156V4.11719H105.375C105.266 4.11719 105.172 4.07812 105.094 4C105.023 3.92188 104.988 3.82812 104.988 3.71875C104.988 3.60938 105.027 3.51562 105.105 3.4375C105.184 3.35938 105.273 3.32031 105.375 3.32031H107.273C107.398 3.32031 107.504 3.36719 107.59 3.46094C107.684 3.54688 107.73 3.65625 107.73 3.78906V5.95703C107.73 6.09766 107.695 6.22266 107.625 6.33203C107.562 6.43359 107.477 6.50781 107.367 6.55469C106.648 6.91406 105.918 7.09375 105.176 7.09375C104.168 7.09375 103.355 6.77344 102.738 6.13281C102.121 5.49219 101.809 4.66797 101.801 3.66016C101.801 2.64453 102.125 1.80469 102.773 1.14062C103.391 0.515625 104.18 0.203125 105.141 0.203125C105.688 0.203125 106.148 0.269531 106.523 0.402344C106.898 0.535156 107.234 0.699219 107.531 0.894531C107.656 0.964844 107.719 1.06641 107.719 1.19922C107.719 1.33203 107.684 1.4375 107.613 1.51562C107.551 1.59375 107.469 1.63281 107.367 1.63281C107.266 1.63281 107.184 1.61719 107.121 1.58594C106.504 1.22656 105.875 1.04688 105.234 1.04688C104.492 1.04688 103.883 1.27344 103.406 1.72656C102.914 2.20312 102.672 2.84766 102.68 3.66016C102.68 4.41797 102.906 5.03906 103.359 5.52344C103.836 6.02344 104.477 6.27344 105.281 6.27344ZM115.758 0.25C115.875 0.25 115.977 0.292969 116.062 0.378906C116.156 0.464844 116.203 0.570312 116.203 0.695312V6.61328C116.203 6.73047 116.16 6.83203 116.074 6.91797C115.988 7.00391 115.883 7.04688 115.758 7.04688C115.641 7.04688 115.539 7.00391 115.453 6.91797C115.367 6.83203 115.324 6.73047 115.324 6.61328V0.695312C115.324 0.578125 115.367 0.476562 115.453 0.390625C115.539 0.296875 115.641 0.25 115.758 0.25ZM128.438 0.296875C128.555 0.296875 128.652 0.339844 128.73 0.425781C128.809 0.503906 128.848 0.597656 128.848 0.707031C128.848 0.816406 128.809 0.914062 128.73 1C128.652 1.07812 128.555 1.11719 128.438 1.11719H126.48V6.61328C126.48 6.73047 126.438 6.83203 126.352 6.91797C126.273 7.00391 126.172 7.04688 126.047 7.04688C125.93 7.04688 125.828 7.00391 125.742 6.91797C125.656 6.83203 125.613 6.73047 125.613 6.61328V1.11719H123.656C123.547 1.11719 123.449 1.07812 123.363 1C123.285 0.921875 123.246 0.824219 123.246 0.707031C123.246 0.597656 123.285 0.503906 123.363 0.425781C123.441 0.339844 123.539 0.296875 123.656 0.296875H128.438ZM141.375 6.42578C141.406 6.50391 141.422 6.58594 141.422 6.67188C141.422 6.75 141.383 6.83203 141.305 6.91797C141.234 7.00391 141.113 7.04688 140.941 7.04688C140.777 7.04688 140.656 6.95703 140.578 6.77734L139.957 5.28906H136.688L136.078 6.77734C136 6.95703 135.875 7.04688 135.703 7.04688C135.539 7.04688 135.418 7.00391 135.34 6.91797C135.27 6.83203 135.234 6.75 135.234 6.67188C135.234 6.58594 135.25 6.50391 135.281 6.42578L137.719 0.648438C137.828 0.382812 138.016 0.25 138.281 0.25H138.375C138.633 0.25 138.82 0.382812 138.938 0.648438L141.375 6.42578ZM139.629 4.49219L138.328 1.36328L137.027 4.49219H139.629ZM152.602 6.13281C152.727 6.13281 152.828 6.17578 152.906 6.26172C152.992 6.33984 153.035 6.44141 153.035 6.56641C153.035 6.68359 152.992 6.78516 152.906 6.87109C152.828 6.95703 152.727 7 152.602 7H149.191C149.02 7 148.875 6.94141 148.758 6.82422C148.641 6.70703 148.582 6.5625 148.582 6.39062V0.695312C148.582 0.578125 148.625 0.476562 148.711 0.390625C148.797 0.296875 148.898 0.25 149.016 0.25C149.133 0.25 149.234 0.292969 149.32 0.378906C149.414 0.464844 149.461 0.570312 149.461 0.695312V6.13281H152.602ZM174.035 6.61328C174.035 6.73047 173.992 6.83203 173.906 6.91797C173.828 7.00391 173.723 7.04688 173.59 7.04688C173.465 7.04688 173.359 7.00781 173.273 6.92969C173.195 6.85156 173.156 6.74609 173.156 6.61328V6.32031C173.156 5.80469 173.098 5.42578 172.98 5.18359C172.871 4.94141 172.715 4.75 172.512 4.60938C172.316 4.46094 172.035 4.38672 171.668 4.38672H169.688V6.61328C169.688 6.73047 169.645 6.83203 169.559 6.91797C169.473 7.00391 169.367 7.04688 169.242 7.04688C169.125 7.04688 169.023 7.00391 168.938 6.91797C168.852 6.83203 168.809 6.73047 168.809 6.61328V0.742188C168.809 0.625 168.852 0.523438 168.938 0.4375C169.023 0.34375 169.125 0.296875 169.242 0.296875H171.48C172.355 0.296875 173.02 0.484375 173.473 0.859375C173.895 1.21094 174.102 1.67188 174.094 2.24219C174.094 2.60938 173.988 2.95703 173.777 3.28516C173.574 3.60547 173.258 3.83594 172.828 3.97656C173.289 4.09375 173.625 4.42969 173.836 4.98438C173.977 5.34375 174.043 5.74219 174.035 6.17969V6.61328ZM171.422 3.55469C171.961 3.55469 172.395 3.45312 172.723 3.25C173.051 3.03906 173.215 2.72656 173.215 2.3125C173.215 1.92969 173.086 1.64062 172.828 1.44531C172.523 1.22656 172.039 1.11719 171.375 1.11719H169.688V3.55469H171.422ZM185.93 6.17969C186.039 6.17969 186.133 6.22266 186.211 6.30859C186.297 6.38672 186.34 6.48438 186.34 6.60156C186.34 6.71094 186.297 6.80469 186.211 6.88281C186.133 6.96094 186.039 7 185.93 7H182.074C181.957 7 181.855 6.95703 181.77 6.87109C181.684 6.78516 181.641 6.68359 181.641 6.56641V0.742188C181.641 0.625 181.684 0.523438 181.77 0.4375C181.855 0.34375 181.957 0.296875 182.074 0.296875H185.93C186.039 0.296875 186.133 0.339844 186.211 0.425781C186.297 0.503906 186.34 0.597656 186.34 0.707031C186.34 0.816406 186.297 0.914062 186.211 1C186.133 1.07812 186.039 1.11719 185.93 1.11719H182.52V3.23828H185.578C185.688 3.23828 185.781 3.27734 185.859 3.35547C185.945 3.43359 185.988 3.53125 185.988 3.64844C185.988 3.75781 185.949 3.85547 185.871 3.94141C185.793 4.01953 185.695 4.05859 185.578 4.05859H182.52V6.17969H185.93ZM195.785 6.27344C196.902 6.27344 197.465 5.90234 197.473 5.16016C197.473 4.85547 197.258 4.61328 196.828 4.43359C196.641 4.35547 196.422 4.28516 196.172 4.22266C195.93 4.16016 195.684 4.09375 195.434 4.02344C195.184 3.95312 194.934 3.875 194.684 3.78906C194.434 3.69531 194.215 3.57812 194.027 3.4375C193.605 3.11719 193.391 2.69531 193.383 2.17188C193.383 1.60938 193.598 1.14844 194.027 0.789062C194.488 0.398438 195.105 0.203125 195.879 0.203125C196.582 0.203125 197.215 0.308594 197.777 0.519531C197.957 0.582031 198.051 0.710938 198.059 0.90625C198.059 1 198.023 1.08984 197.953 1.17578C197.891 1.26172 197.816 1.30469 197.73 1.30469C197.652 1.30469 197.543 1.28125 197.402 1.23438C196.98 1.08594 196.504 1.01172 195.973 1.01172C195.48 1.01172 195.074 1.10547 194.754 1.29297C194.426 1.48828 194.262 1.75781 194.262 2.10156C194.262 2.46094 194.473 2.73828 194.895 2.93359C195.09 3.01953 195.309 3.09375 195.551 3.15625C195.793 3.21094 196.043 3.26953 196.301 3.33203C196.559 3.39453 196.805 3.47266 197.039 3.56641C197.281 3.65234 197.5 3.76172 197.695 3.89453C198.117 4.19922 198.332 4.64453 198.34 5.23047C198.34 5.77734 198.117 6.22266 197.672 6.56641C197.219 6.91797 196.621 7.09375 195.879 7.09375C195.066 7.09375 194.305 6.94141 193.594 6.63672C193.523 6.60547 193.461 6.55469 193.406 6.48438C193.352 6.40625 193.324 6.32031 193.324 6.22656C193.324 6.13281 193.359 6.04688 193.43 5.96875C193.5 5.88281 193.578 5.83984 193.664 5.83984C193.758 5.83984 193.871 5.87109 194.004 5.93359C194.145 5.99609 194.371 6.07031 194.684 6.15625C194.996 6.23438 195.363 6.27344 195.785 6.27344ZM206.098 0.25C206.215 0.25 206.316 0.292969 206.402 0.378906C206.496 0.464844 206.543 0.570312 206.543 0.695312V6.61328C206.543 6.73047 206.5 6.83203 206.414 6.91797C206.328 7.00391 206.223 7.04688 206.098 7.04688C205.98 7.04688 205.879 7.00391 205.793 6.91797C205.707 6.83203 205.664 6.73047 205.664 6.61328V0.695312C205.664 0.578125 205.707 0.476562 205.793 0.390625C205.879 0.296875 205.98 0.25 206.098 0.25ZM218.402 6.13281C218.527 6.13281 218.629 6.17578 218.707 6.26172C218.793 6.33984 218.836 6.44141 218.836 6.56641C218.836 6.68359 218.793 6.78516 218.707 6.87109C218.629 6.95703 218.527 7 218.402 7H214.992C214.82 7 214.676 6.94141 214.559 6.82422C214.441 6.70703 214.383 6.5625 214.383 6.39062V0.695312C214.383 0.578125 214.426 0.476562 214.512 0.390625C214.598 0.296875 214.699 0.25 214.816 0.25C214.934 0.25 215.035 0.292969 215.121 0.378906C215.215 0.464844 215.262 0.570312 215.262 0.695312V6.13281H218.402ZM226.336 0.25C226.453 0.25 226.555 0.292969 226.641 0.378906C226.734 0.464844 226.781 0.570312 226.781 0.695312V6.61328C226.781 6.73047 226.738 6.83203 226.652 6.91797C226.566 7.00391 226.461 7.04688 226.336 7.04688C226.219 7.04688 226.117 7.00391 226.031 6.91797C225.945 6.83203 225.902 6.73047 225.902 6.61328V0.695312C225.902 0.578125 225.945 0.476562 226.031 0.390625C226.117 0.296875 226.219 0.25 226.336 0.25ZM238.91 6.17969C239.02 6.17969 239.113 6.22266 239.191 6.30859C239.277 6.38672 239.32 6.48438 239.32 6.60156C239.32 6.71094 239.277 6.80469 239.191 6.88281C239.113 6.96094 239.02 7 238.91 7H235.055C234.938 7 234.836 6.95703 234.75 6.87109C234.664 6.78516 234.621 6.68359 234.621 6.56641V0.742188C234.621 0.625 234.664 0.523438 234.75 0.4375C234.836 0.34375 234.938 0.296875 235.055 0.296875H238.91C239.02 0.296875 239.113 0.339844 239.191 0.425781C239.277 0.503906 239.32 0.597656 239.32 0.707031C239.32 0.816406 239.277 0.914062 239.191 1C239.113 1.07812 239.02 1.11719 238.91 1.11719H235.5V3.23828H238.559C238.668 3.23828 238.762 3.27734 238.84 3.35547C238.926 3.43359 238.969 3.53125 238.969 3.64844C238.969 3.75781 238.93 3.85547 238.852 3.94141C238.773 4.01953 238.676 4.05859 238.559 4.05859H235.5V6.17969H238.91ZM252.152 0.25C252.27 0.25 252.371 0.292969 252.457 0.378906C252.543 0.464844 252.586 0.570312 252.586 0.695312V6.42578C252.586 6.59766 252.523 6.74609 252.398 6.87109C252.273 6.98828 252.125 7.04688 251.953 7.04688H251.836C251.625 7.04688 251.457 6.96094 251.332 6.78906L247.617 1.42188V6.61328C247.617 6.73047 247.574 6.83203 247.488 6.91797C247.402 7.00391 247.297 7.04688 247.172 7.04688C247.055 7.04688 246.953 7.00391 246.867 6.91797C246.781 6.83203 246.738 6.73047 246.738 6.61328V0.882812C246.738 0.710938 246.797 0.5625 246.914 0.4375C247.039 0.3125 247.191 0.25 247.371 0.25H247.488C247.691 0.25 247.871 0.347656 248.027 0.542969L251.719 5.875V0.695312C251.719 0.578125 251.762 0.476562 251.848 0.390625C251.934 0.296875 252.035 0.25 252.152 0.25ZM265.254 5.80469C265.301 5.78125 265.371 5.76953 265.465 5.76953C265.559 5.76953 265.641 5.80859 265.711 5.88672C265.781 5.95703 265.816 6.03906 265.816 6.13281C265.816 6.30469 265.742 6.42969 265.594 6.50781C265.297 6.67969 264.977 6.82031 264.633 6.92969C264.297 7.03906 263.887 7.09375 263.402 7.09375C262.926 7.09375 262.48 7.01562 262.066 6.85938C261.66 6.70312 261.309 6.47656 261.012 6.17969C260.371 5.55469 260.051 4.71094 260.051 3.64844C260.051 2.59375 260.371 1.75 261.012 1.11719C261.629 0.507812 262.43 0.203125 263.414 0.203125C263.891 0.203125 264.297 0.261719 264.633 0.378906C264.977 0.496094 265.238 0.605469 265.418 0.707031C265.598 0.800781 265.707 0.878906 265.746 0.941406C265.793 0.996094 265.816 1.07031 265.816 1.16406C265.816 1.25781 265.781 1.34375 265.711 1.42188C265.641 1.49219 265.559 1.52734 265.465 1.52734C265.379 1.52734 265.309 1.51562 265.254 1.49219C264.996 1.35156 264.73 1.24219 264.457 1.16406C264.191 1.07812 263.859 1.03516 263.461 1.03516C263.062 1.03516 262.699 1.10547 262.371 1.24609C262.051 1.37891 261.781 1.5625 261.562 1.79688C261.133 2.26562 260.922 2.88281 260.93 3.64844C260.93 4.41406 261.141 5.03125 261.562 5.5C262.031 6.00781 262.676 6.26172 263.496 6.26172C263.871 6.26172 264.191 6.22266 264.457 6.14453C264.73 6.05859 264.996 5.94531 265.254 5.80469ZM277.418 6.17969C277.527 6.17969 277.621 6.22266 277.699 6.30859C277.785 6.38672 277.828 6.48438 277.828 6.60156C277.828 6.71094 277.785 6.80469 277.699 6.88281C277.621 6.96094 277.527 7 277.418 7H273.562C273.445 7 273.344 6.95703 273.258 6.87109C273.172 6.78516 273.129 6.68359 273.129 6.56641V0.742188C273.129 0.625 273.172 0.523438 273.258 0.4375C273.344 0.34375 273.445 0.296875 273.562 0.296875H277.418C277.527 0.296875 277.621 0.339844 277.699 0.425781C277.785 0.503906 277.828 0.597656 277.828 0.707031C277.828 0.816406 277.785 0.914062 277.699 1C277.621 1.07812 277.527 1.11719 277.418 1.11719H274.008V3.23828H277.066C277.176 3.23828 277.27 3.27734 277.348 3.35547C277.434 3.43359 277.477 3.53125 277.477 3.64844C277.477 3.75781 277.438 3.85547 277.359 3.94141C277.281 4.01953 277.184 4.05859 277.066 4.05859H274.008V6.17969H277.418Z" fill="black"/>
</svg>
