<svg width="36" height="37" viewBox="0 0 36 37" fill="none" xmlns="http://www.w3.org/2000/svg">
<circle cx="18.0953" cy="18.4523" r="17.7143" fill="#524CA6"/>
<path d="M21.7857 15.5C22.9603 15.5 24.0867 15.9666 24.9172 16.7971C25.7477 17.6276 26.2143 18.754 26.2143 19.9286V25.0952H23.2619V19.9286C23.2619 19.5371 23.1064 19.1616 22.8296 18.8847C22.5527 18.6079 22.1773 18.4524 21.7857 18.4524C21.3942 18.4524 21.0188 18.6079 20.7419 18.8847C20.4651 19.1616 20.3096 19.5371 20.3096 19.9286V25.0952H17.3572V19.9286C17.3572 18.754 17.8238 17.6276 18.6543 16.7971C19.4848 15.9666 20.6112 15.5 21.7857 15.5Z" fill="white"/>
<path d="M14.4048 16.238H11.4524V25.0952H14.4048V16.238Z" fill="white"/>
<path d="M12.9286 14.0237C13.7439 14.0237 14.4048 13.3628 14.4048 12.5475C14.4048 11.7322 13.7439 11.0713 12.9286 11.0713C12.1133 11.0713 11.4524 11.7322 11.4524 12.5475C11.4524 13.3628 12.1133 14.0237 12.9286 14.0237Z" fill="white"/>
</svg>
