<svg width="22" height="22" viewBox="0 0 22 22" fill="none" xmlns="http://www.w3.org/2000/svg">
<path d="M18.0684 3.08319L2.05586 7.59955C1.92115 7.63754 1.80125 7.71575 1.71218 7.82371C1.62311 7.93168 1.56911 8.06426 1.5574 8.20373C1.5457 8.34321 1.57684 8.48293 1.64667 8.60424C1.7165 8.72554 1.82169 8.82264 1.94818 8.88255L9.30537 12.3675C9.44886 12.4355 9.5644 12.551 9.63238 12.6945L13.1174 20.0517C13.1773 20.1782 13.2744 20.2834 13.3957 20.3532C13.517 20.4231 13.6567 20.4542 13.7962 20.4425C13.9356 20.4308 14.0682 20.3768 14.1762 20.2877C14.2842 20.1987 14.3624 20.0788 14.4004 19.944L18.9167 3.9315C18.9499 3.81388 18.9511 3.68954 18.9203 3.57129C18.8894 3.45304 18.8276 3.34515 18.7412 3.25874C18.6548 3.17232 18.5469 3.1105 18.4286 3.07965C18.3104 3.04879 18.186 3.05001 18.0684 3.08319Z" stroke="#524CA6" stroke-width="2" stroke-linecap="round" stroke-linejoin="round"/>
<path d="M9.52728 12.4728L13.4164 8.58374" stroke="#524CA6" stroke-width="2" stroke-linecap="round" stroke-linejoin="round"/>
</svg>
