<svg width="36" height="36" viewBox="0 0 36 36" fill="none" xmlns="http://www.w3.org/2000/svg">
<circle cx="18.2857" cy="17.7143" r="17.7143" fill="#524CA6"/>
<path d="M26.4048 12.5551C25.6659 13.0552 24.8477 13.4377 23.9819 13.6879C23.5171 13.1752 22.8995 12.8117 22.2125 12.6468C21.5255 12.4819 20.8023 12.5234 20.1406 12.7657C19.479 13.008 18.9109 13.4394 18.5132 14.0016C18.1154 14.5638 17.9072 15.2297 17.9167 15.9091V16.6495C16.5606 16.6833 15.2169 16.3947 14.0052 15.8095C12.7935 15.2243 11.7514 14.3606 10.9718 13.2955C10.9718 13.2955 7.88523 19.9592 14.8301 22.9208C13.2409 23.9559 11.3477 24.4749 9.42853 24.4016C16.3734 28.1037 24.8615 24.4016 24.8615 15.8869C24.8608 15.6807 24.8402 15.4749 24.7998 15.2724C25.5874 14.5271 26.1431 13.5862 26.4048 12.5551V12.5551Z" fill="white"/>
</svg>
