<svg width="36" height="36" viewBox="0 0 36 36" fill="none" xmlns="http://www.w3.org/2000/svg">
<circle cx="17.7143" cy="17.7143" r="17.7143" fill="#524CA6"/>
<path d="M26.7904 12.9091C26.6881 12.5004 26.4798 12.126 26.1865 11.8236C25.8931 11.5212 25.5252 11.3015 25.1198 11.1869C23.6387 10.8252 17.7143 10.8252 17.7143 10.8252C17.7143 10.8252 11.7898 10.8252 10.3087 11.2213C9.90337 11.336 9.53544 11.5556 9.24212 11.858C8.9488 12.1604 8.74047 12.5349 8.63818 12.9435C8.36712 14.4466 8.23452 15.9715 8.24207 17.4988C8.23241 19.0376 8.36501 20.5741 8.63818 22.0885C8.75095 22.4845 8.96394 22.8447 9.25658 23.1343C9.54922 23.4239 9.91161 23.6332 10.3087 23.7419C11.7898 24.138 17.7143 24.138 17.7143 24.138C17.7143 24.138 23.6387 24.138 25.1198 23.7419C25.5252 23.6272 25.8931 23.4075 26.1865 23.1051C26.4798 22.8028 26.6881 22.4283 26.7904 22.0196C27.0594 20.5278 27.192 19.0146 27.1865 17.4988C27.1962 15.96 27.0636 14.4235 26.7904 12.9091Z" fill="white"/>
<path d="M15.7768 20.3148L20.7282 17.4989L15.7768 14.6831V20.3148Z" fill="#524CA6"/>
</svg>
